<svg width="100" height="100" viewBox="0 0 100 100" fill="none" xmlns="http://www.w3.org/2000/svg">
<g clip-path="url(#clip0_5361_14276)">
<path d="M24.9997 74.9999H74.9997C77.2913 74.9999 79.1663 76.8749 79.1663 79.1666C79.1663 81.4583 77.2913 83.3333 74.9997 83.3333H24.9997C22.708 83.3333 20.833 81.4583 20.833 79.1666C20.833 76.8749 22.708 74.9999 24.9997 74.9999ZM45.8747 57.9166C42.6247 61.1249 37.3747 61.1249 34.1247 57.8749L24.9997 48.7499C22.708 46.4583 22.7497 42.7499 25.1247 40.5416C27.3747 38.3749 30.958 38.4583 33.1247 40.6249L39.9997 47.4999L66.7913 20.7083C69.0413 18.4583 72.6663 18.4583 74.9163 20.7083L75.083 20.8749C77.333 23.1249 77.333 26.7916 75.0413 29.0416L45.8747 57.9166Z" fill="black" fill-opacity="0.54"/>
</g>
<defs>
<clipPath id="clip0_5361_14276">
<rect width="100" height="100" fill="white"/>
</clipPath>
</defs>
</svg>
