<svg width="100" height="100" viewBox="0 0 100 100" fill="none" xmlns="http://www.w3.org/2000/svg">
<path d="M49.9997 8.33325C27.0413 8.33325 8.33301 27.0416 8.33301 49.9999C8.33301 72.9583 27.0413 91.6666 49.9997 91.6666C72.958 91.6666 91.6663 72.9583 91.6663 49.9999C91.6663 27.0416 72.958 8.33325 49.9997 8.33325ZM45.833 41.6666V29.1666C45.833 26.8749 47.708 24.9999 49.9997 24.9999C52.2913 24.9999 54.1663 26.8749 54.1663 29.1666V41.6666H61.6247C63.4997 41.6666 64.4163 43.9166 63.083 45.2083L51.458 56.8333C50.6247 57.6666 49.333 57.6666 48.4997 56.8333L36.8747 45.2083C35.583 43.9166 36.4997 41.6666 38.3747 41.6666H45.833ZM66.6663 70.8332H33.333C31.0413 70.8332 29.1663 68.9583 29.1663 66.6666C29.1663 64.3749 31.0413 62.4999 33.333 62.4999H66.6663C68.958 62.4999 70.833 64.3749 70.833 66.6666C70.833 68.9583 68.958 70.8332 66.6663 70.8332Z" fill="black" fill-opacity="0.54"/>
</svg>
